<svg width="21" height="21" viewBox="0 0 21 21" fill="none" xmlns="http://www.w3.org/2000/svg">
<path d="M9.875 6.51221C9.875 6.34645 9.80915 6.18748 9.69194 6.07027C9.57473 5.95306 9.41576 5.88721 9.25 5.88721C9.08424 5.88721 8.92527 5.95306 8.80806 6.07027C8.69085 6.18748 8.625 6.34645 8.625 6.51221V9.01221H6.125C5.95924 9.01221 5.80027 9.07805 5.68306 9.19526C5.56585 9.31248 5.5 9.47145 5.5 9.63721C5.5 9.80297 5.56585 9.96194 5.68306 10.0791C5.80027 10.1964 5.95924 10.2622 6.125 10.2622H8.625V12.7622C8.625 12.928 8.69085 13.0869 8.80806 13.2041C8.92527 13.3214 9.08424 13.3872 9.25 13.3872C9.41576 13.3872 9.57473 13.3214 9.69194 13.2041C9.80915 13.0869 9.875 12.928 9.875 12.7622V10.2622H12.375C12.5408 10.2622 12.6997 10.1964 12.8169 10.0791C12.9342 9.96194 13 9.80297 13 9.63721C13 9.47145 12.9342 9.31248 12.8169 9.19526C12.6997 9.07805 12.5408 9.01221 12.375 9.01221H9.875V6.51221ZM3.625 0.887207C2.7962 0.887207 2.00134 1.21645 1.41529 1.8025C0.82924 2.38855 0.5 3.18341 0.5 4.01221V15.2622C0.5 16.091 0.82924 16.8859 1.41529 17.4719C2.00134 18.058 2.7962 18.3872 3.625 18.3872H14.875C15.7038 18.3872 16.4987 18.058 17.0847 17.4719C17.6708 16.8859 18 16.091 18 15.2622V4.01221C18 3.18341 17.6708 2.38855 17.0847 1.8025C16.4987 1.21645 15.7038 0.887207 14.875 0.887207H3.625ZM1.75 4.01221C1.75 3.51493 1.94754 3.03801 2.29917 2.68638C2.65081 2.33475 3.12772 2.13721 3.625 2.13721H14.875C15.3723 2.13721 15.8492 2.33475 16.2008 2.68638C16.5525 3.03801 16.75 3.51493 16.75 4.01221V15.2622C16.75 15.7595 16.5525 16.2364 16.2008 16.588C15.8492 16.9397 15.3723 17.1372 14.875 17.1372H3.625C3.12772 17.1372 2.65081 16.9397 2.29917 16.588C1.94754 16.2364 1.75 15.7595 1.75 15.2622V4.01221ZM7.375 20.8872C6.22992 20.8874 5.13041 20.4386 4.3125 19.6372H16.125C16.9538 19.6372 17.7487 19.308 18.3347 18.7219C18.9208 18.1359 19.25 17.341 19.25 16.5122V4.69971C20.0238 5.48971 20.5 6.56971 20.5 7.76221V16.5122C20.5 17.6725 20.0391 18.7853 19.2186 19.6058C18.3981 20.4263 17.2853 20.8872 16.125 20.8872H7.375Z" fill="#F5F5F5"/>
</svg>
