<svg width="16" height="17" viewBox="0 0 16 17" fill="none" xmlns="http://www.w3.org/2000/svg">
<path d="M6.85714 5.24452C6.85714 5.01849 6.92417 4.79753 7.04975 4.60959C7.17533 4.42165 7.35382 4.27516 7.56265 4.18866C7.77148 4.10216 8.00127 4.07953 8.22296 4.12363C8.44465 4.16772 8.64829 4.27657 8.80812 4.4364C8.96795 4.59623 9.0768 4.79987 9.1209 5.02156C9.165 5.24326 9.14236 5.47305 9.05586 5.68188C8.96936 5.89071 8.82288 6.0692 8.63494 6.19478C8.447 6.32035 8.22604 6.38738 8 6.38738C7.6969 6.38738 7.40621 6.26697 7.19188 6.05265C6.97755 5.83832 6.85714 5.54763 6.85714 5.24452ZM3.42857 5.24452C3.42857 4.03211 3.9102 2.86935 4.76751 2.01204C5.62482 1.15473 6.78758 0.673096 8 0.673096C9.21242 0.673096 10.3752 1.15473 11.2325 2.01204C12.0898 2.86935 12.5714 4.03211 12.5714 5.24452C12.5714 9.52667 8.45857 11.926 8.28572 12.0267C8.19936 12.076 8.10161 12.102 8.00214 12.102C7.90267 12.102 7.80493 12.076 7.71857 12.0267C7.54143 11.926 3.42857 9.53024 3.42857 5.24452ZM4.57143 5.24452C4.57143 8.25881 7.13143 10.2595 8 10.8517C8.86786 10.2602 11.4286 8.25881 11.4286 5.24452C11.4286 4.33521 11.0673 3.46314 10.4244 2.82016C9.78139 2.17718 8.90931 1.81595 8 1.81595C7.09069 1.81595 6.21862 2.17718 5.57563 2.82016C4.93265 3.46314 4.57143 4.33521 4.57143 5.24452ZM13.3407 10.0752C13.2001 10.0288 13.0469 10.0387 12.9134 10.103C12.78 10.1673 12.6767 10.2809 12.6254 10.4198C12.5741 10.5588 12.5787 10.7122 12.6384 10.8478C12.698 10.9834 12.8079 11.0906 12.945 11.1467C14.1243 11.5831 14.8571 12.1674 14.8571 12.6731C14.8571 13.6274 12.2486 14.9588 8 14.9588C3.75143 14.9588 1.14286 13.6274 1.14286 12.6731C1.14286 12.1674 1.87571 11.5831 3.055 11.1474C3.19208 11.0913 3.30202 10.9841 3.36163 10.8485C3.42125 10.7129 3.42589 10.5595 3.37458 10.4206C3.32326 10.2816 3.22 10.168 3.08656 10.1037C2.95312 10.0395 2.79993 10.0295 2.65929 10.076C0.944286 10.7081 0 11.631 0 12.6731C0 14.9002 4.12214 16.1017 8 16.1017C11.8779 16.1017 16 14.9002 16 12.6731C16 11.631 15.0557 10.7081 13.3407 10.0752Z" fill="#1D61DF"/>
</svg>
