<svg width="21" height="21" viewBox="0 0 21 21" fill="none" xmlns="http://www.w3.org/2000/svg">
<path d="M19.2375 8.44545C18.9009 8.09366 18.5527 7.73116 18.4214 7.41241C18.3 7.12045 18.2929 6.63652 18.2857 6.16777C18.2723 5.29634 18.258 4.30884 17.5714 3.62224C16.8848 2.93563 15.8973 2.92134 15.0259 2.90795C14.5571 2.90081 14.0732 2.89366 13.7812 2.77224C13.4634 2.64099 13.1 2.29277 12.7482 1.95616C12.1321 1.3642 11.4321 0.693665 10.5 0.693665C9.56786 0.693665 8.86875 1.3642 8.25179 1.95616C7.9 2.29277 7.5375 2.64099 7.21875 2.77224C6.92857 2.89366 6.44286 2.90081 5.97411 2.90795C5.10268 2.92134 4.11518 2.93563 3.42857 3.62224C2.74196 4.30884 2.73214 5.29634 2.71429 6.16777C2.70714 6.63652 2.7 7.12045 2.57857 7.41241C2.44732 7.73027 2.09911 8.09366 1.7625 8.44545C1.17054 9.06152 0.5 9.76152 0.5 10.6937C0.5 11.6258 1.17054 12.3249 1.7625 12.9419C2.09911 13.2937 2.44732 13.6562 2.57857 13.9749C2.7 14.2669 2.70714 14.7508 2.71429 15.2196C2.72768 16.091 2.74196 17.0785 3.42857 17.7651C4.11518 18.4517 5.10268 18.466 5.97411 18.4794C6.44286 18.4865 6.92679 18.4937 7.21875 18.6151C7.53661 18.7463 7.9 19.0946 8.25179 19.4312C8.86786 20.0231 9.56786 20.6937 10.5 20.6937C11.4321 20.6937 12.1312 20.0231 12.7482 19.4312C13.1 19.0946 13.4625 18.7463 13.7812 18.6151C14.0732 18.4937 14.5571 18.4865 15.0259 18.4794C15.8973 18.466 16.8848 18.4517 17.5714 17.7651C18.258 17.0785 18.2723 16.091 18.2857 15.2196C18.2929 14.7508 18.3 14.2669 18.4214 13.9749C18.5527 13.6571 18.9009 13.2937 19.2375 12.9419C19.8295 12.3258 20.5 11.6258 20.5 10.6937C20.5 9.76152 19.8295 9.06242 19.2375 8.44545ZM18.2063 11.9535C17.7786 12.3999 17.3357 12.8615 17.1009 13.4285C16.8759 13.9731 16.8661 14.5955 16.8571 15.1981C16.8482 15.8231 16.8384 16.4776 16.5607 16.7544C16.283 17.0312 15.633 17.0419 15.0045 17.0508C14.4018 17.0597 13.7795 17.0696 13.2348 17.2946C12.6679 17.5294 12.2063 17.9722 11.7598 18.3999C11.3134 18.8276 10.8571 19.2651 10.5 19.2651C10.1429 19.2651 9.68304 18.8258 9.24018 18.3999C8.79732 17.974 8.33214 17.5294 7.76518 17.2946C7.22054 17.0696 6.59821 17.0597 5.99554 17.0508C5.37054 17.0419 4.71607 17.0321 4.43929 16.7544C4.1625 16.4767 4.15179 15.8267 4.14286 15.1981C4.13393 14.5955 4.12411 13.9731 3.89911 13.4285C3.66429 12.8615 3.22143 12.3999 2.79375 11.9535C2.36607 11.5071 1.92857 11.0508 1.92857 10.6937C1.92857 10.3365 2.36786 9.8767 2.79375 9.43384C3.21964 8.99099 3.66429 8.52581 3.89911 7.95884C4.12411 7.4142 4.13393 6.79188 4.14286 6.1892C4.15179 5.5642 4.16161 4.90974 4.43929 4.63295C4.71696 4.35616 5.36696 4.34545 5.99554 4.33652C6.59821 4.32759 7.22054 4.31777 7.76518 4.09277C8.33214 3.85795 8.79375 3.41509 9.24018 2.98741C9.68661 2.55974 10.1429 2.12224 10.5 2.12224C10.8571 2.12224 11.317 2.56152 11.7598 2.98741C12.2027 3.41331 12.6679 3.85795 13.2348 4.09277C13.7795 4.31777 14.4018 4.32759 15.0045 4.33652C15.6295 4.34545 16.2839 4.35527 16.5607 4.63295C16.8375 4.91063 16.8482 5.56063 16.8571 6.1892C16.8661 6.79188 16.8759 7.4142 17.1009 7.95884C17.3357 8.52581 17.7786 8.98741 18.2063 9.43384C18.6339 9.88027 19.0714 10.3365 19.0714 10.6937C19.0714 11.0508 18.6321 11.5106 18.2063 11.9535ZM14.5768 8.04545C14.6432 8.11179 14.6959 8.19057 14.7318 8.27728C14.7678 8.36399 14.7863 8.45694 14.7863 8.55081C14.7863 8.64468 14.7678 8.73762 14.7318 8.82434C14.6959 8.91105 14.6432 8.98983 14.5768 9.05616L9.57679 14.0562C9.51045 14.1226 9.43167 14.1753 9.34496 14.2112C9.25824 14.2472 9.1653 14.2657 9.07143 14.2657C8.97756 14.2657 8.88461 14.2472 8.7979 14.2112C8.71119 14.1753 8.63241 14.1226 8.56607 14.0562L6.42321 11.9133C6.28919 11.7793 6.21389 11.5975 6.21389 11.408C6.21389 11.2184 6.28919 11.0366 6.42321 10.9026C6.55724 10.7686 6.73903 10.6933 6.92857 10.6933C7.11812 10.6933 7.2999 10.7686 7.43393 10.9026L9.07143 12.541L13.5661 8.04545C13.6324 7.97904 13.7112 7.92635 13.7979 7.89041C13.8846 7.85446 13.9776 7.83596 14.0714 7.83596C14.1653 7.83596 14.2582 7.85446 14.345 7.89041C14.4317 7.92635 14.5104 7.97904 14.5768 8.04545Z" fill="#15B097"/>
</svg>
