<svg width="15" height="15" viewBox="0 0 15 15" fill="none" xmlns="http://www.w3.org/2000/svg">
<path d="M14.7359 13.6813C14.8052 13.7505 14.8601 13.8327 14.8976 13.9232C14.9351 14.0137 14.9543 14.1107 14.9543 14.2086C14.9543 14.3066 14.9351 14.4036 14.8976 14.4941C14.8601 14.5845 14.8052 14.6668 14.7359 14.736C14.6666 14.8053 14.5844 14.8602 14.4939 14.8977C14.4035 14.9352 14.3065 14.9545 14.2085 14.9545C14.1106 14.9545 14.0136 14.9352 13.9231 14.8977C13.8326 14.8602 13.7504 14.8053 13.6812 14.736L7.49988 8.55382L1.3186 14.736C1.17874 14.8759 0.989034 14.9545 0.79123 14.9545C0.593426 14.9545 0.403724 14.8759 0.263856 14.736C0.123987 14.5962 0.0454102 14.4065 0.0454102 14.2086C0.0454102 14.0108 0.123987 13.8211 0.263856 13.6813L6.44606 7.5L0.263856 1.31873C0.123987 1.17886 0.0454102 0.989156 0.0454102 0.791352C0.0454102 0.593548 0.123987 0.403846 0.263856 0.263978C0.403724 0.124109 0.593426 0.0455322 0.79123 0.0455322C0.989034 0.0455322 1.17874 0.124109 1.3186 0.263978L7.49988 6.44618L13.6812 0.263978C13.821 0.124109 14.0107 0.0455322 14.2085 0.0455322C14.4063 0.0455322 14.596 0.124109 14.7359 0.263978C14.8758 0.403846 14.9543 0.593548 14.9543 0.791352C14.9543 0.989156 14.8758 1.17886 14.7359 1.31873L8.55369 7.5L14.7359 13.6813Z" fill="#191E27"/>
</svg>
