<svg width="41" height="40" viewBox="0 0 41 40" fill="none" xmlns="http://www.w3.org/2000/svg">
<path d="M27.7917 4.16667H9.04167C8.7654 4.16667 8.50045 4.27641 8.3051 4.47176C8.10975 4.66711 8 4.93207 8 5.20833V23.9583C8 24.2346 8.10975 24.4996 8.3051 24.6949C8.50045 24.8903 8.7654 25 9.04167 25H27.7917C28.0679 25 28.3329 24.8903 28.5282 24.6949C28.7236 24.4996 28.8333 24.2346 28.8333 23.9583V5.20833C28.8333 4.93207 28.7236 4.66711 28.5282 4.47176C28.3329 4.27641 28.0679 4.16667 27.7917 4.16667ZM26.75 22.9167H10.0833V6.25H26.75V22.9167ZM33 1.04167V19.7917C33 20.0679 32.8903 20.3329 32.6949 20.5282C32.4996 20.7236 32.2346 20.8333 31.9583 20.8333C31.6821 20.8333 31.4171 20.7236 31.2218 20.5282C31.0264 20.3329 30.9167 20.0679 30.9167 19.7917V2.08333H13.2083C12.9321 2.08333 12.6671 1.97359 12.4718 1.77824C12.2764 1.58289 12.1667 1.31793 12.1667 1.04167C12.1667 0.765399 12.2764 0.500448 12.4718 0.305097C12.6671 0.109747 12.9321 0 13.2083 0H31.9583C32.2346 0 32.4996 0.109747 32.6949 0.305097C32.8903 0.500448 33 0.765399 33 1.04167Z" fill="#1D61DF"/>
<path d="M28.4414 39.688C27.5774 39.688 26.8454 39.508 26.2454 39.148C25.6454 38.78 25.1894 38.272 24.8774 37.624C24.5734 36.968 24.4214 36.212 24.4214 35.356C24.4214 34.708 24.5054 34.12 24.6734 33.592C24.8494 33.064 25.1054 32.608 25.4414 32.224C25.7854 31.832 26.2054 31.532 26.7014 31.324C27.1974 31.108 27.7694 31 28.4174 31C29.0494 31 29.6134 31.104 30.1094 31.312C30.6134 31.512 31.0254 31.808 31.3454 32.2C31.6734 32.592 31.8934 33.072 32.0054 33.64H30.4574C30.3934 33.368 30.2694 33.14 30.0854 32.956C29.9094 32.772 29.6854 32.632 29.4134 32.536C29.1414 32.44 28.8294 32.392 28.4774 32.392C28.0214 32.392 27.6334 32.472 27.3134 32.632C26.9934 32.792 26.7334 33.012 26.5334 33.292C26.3334 33.564 26.1854 33.88 26.0894 34.24C26.0014 34.592 25.9574 34.968 25.9574 35.368C25.9574 35.888 26.0414 36.372 26.2094 36.82C26.3854 37.268 26.6574 37.628 27.0254 37.9C27.4014 38.164 27.8894 38.296 28.4894 38.296C28.9134 38.296 29.2854 38.224 29.6054 38.08C29.9334 37.936 30.1894 37.728 30.3734 37.456C30.5654 37.176 30.6694 36.832 30.6854 36.424H28.2134V35.128H32.1974V35.68C32.1974 36.504 32.0534 37.216 31.7654 37.816C31.4774 38.416 31.0534 38.88 30.4934 39.208C29.9414 39.528 29.2574 39.688 28.4414 39.688Z" fill="#1D61DF"/>
<path d="M19.0251 39.592L15.8931 31.108H17.5251L20.0451 38.32L22.5291 31.108H24.1491L21.0411 39.592H19.0251Z" fill="#1D61DF"/>
<path d="M12.3187 39.688C11.7507 39.688 11.2147 39.604 10.7107 39.436C10.2147 39.26 9.79873 38.984 9.46273 38.608C9.12673 38.224 8.90673 37.724 8.80273 37.108H10.3267C10.4227 37.42 10.5747 37.664 10.7827 37.84C10.9987 38.016 11.2507 38.14 11.5387 38.212C11.8267 38.276 12.1187 38.308 12.4147 38.308C12.6787 38.308 12.9267 38.276 13.1587 38.212C13.3987 38.14 13.5947 38.024 13.7467 37.864C13.9067 37.704 13.9867 37.492 13.9867 37.228C13.9867 37.028 13.9427 36.868 13.8547 36.748C13.7747 36.62 13.6587 36.516 13.5067 36.436C13.3627 36.348 13.1867 36.28 12.9787 36.232C12.7787 36.168 12.5627 36.112 12.3307 36.064C12.0987 36.016 11.8707 35.964 11.6467 35.908C11.4227 35.852 11.2107 35.78 11.0107 35.692C10.7547 35.604 10.5067 35.504 10.2667 35.392C10.0347 35.272 9.83073 35.128 9.65473 34.96C9.48673 34.792 9.35073 34.584 9.24673 34.336C9.14273 34.088 9.09073 33.792 9.09073 33.448C9.09073 33.056 9.15473 32.72 9.28273 32.44C9.41873 32.152 9.59473 31.916 9.81073 31.732C10.0347 31.548 10.2827 31.404 10.5547 31.3C10.8347 31.196 11.1227 31.12 11.4187 31.072C11.7227 31.024 12.0107 31 12.2827 31C12.8107 31 13.2907 31.088 13.7227 31.264C14.1627 31.44 14.5227 31.712 14.8027 32.08C15.0827 32.448 15.2427 32.92 15.2827 33.496H13.8307C13.7987 33.224 13.7027 33.008 13.5427 32.848C13.3827 32.68 13.1827 32.56 12.9427 32.488C12.7027 32.408 12.4427 32.368 12.1627 32.368C11.9707 32.368 11.7787 32.384 11.5867 32.416C11.4027 32.448 11.2347 32.504 11.0827 32.584C10.9387 32.664 10.8187 32.772 10.7227 32.908C10.6347 33.036 10.5907 33.2 10.5907 33.4C10.5907 33.576 10.6347 33.732 10.7227 33.868C10.8107 33.996 10.9307 34.104 11.0827 34.192C11.2427 34.28 11.4307 34.36 11.6467 34.432C11.9267 34.544 12.2307 34.628 12.5587 34.684C12.8947 34.74 13.2107 34.816 13.5067 34.912C13.7947 34.992 14.0587 35.092 14.2987 35.212C14.5467 35.324 14.7587 35.464 14.9347 35.632C15.1107 35.792 15.2467 35.992 15.3427 36.232C15.4467 36.464 15.4987 36.744 15.4987 37.072C15.4987 37.552 15.4107 37.96 15.2347 38.296C15.0667 38.624 14.8307 38.892 14.5267 39.1C14.2307 39.308 13.8907 39.46 13.5067 39.556C13.1307 39.644 12.7347 39.688 12.3187 39.688Z" fill="#1D61DF"/>
</svg>
