<svg width="18" height="19" viewBox="0 0 18 19" fill="none" xmlns="http://www.w3.org/2000/svg">
<path d="M3.77272 5.11035H2.82232C2.31819 5.11035 1.83471 5.31061 1.47824 5.66708C1.12177 6.02356 0.921509 6.50703 0.921509 7.01116V15.5648C0.921509 16.0689 1.12177 16.5524 1.47824 16.9089C1.83471 17.2653 2.31819 17.4656 2.82232 17.4656H11.3759C11.8801 17.4656 12.3635 17.2653 12.72 16.9089C13.0765 16.5524 13.2768 16.0689 13.2768 15.5648V14.6144" stroke="#9C8A8B" stroke-width="1.5" stroke-linecap="round" stroke-linejoin="round"/>
<path d="M12.3263 3.20975L15.1776 6.06096M16.4939 4.71614C16.8682 4.34182 17.0785 3.83415 17.0785 3.30479C17.0785 2.77543 16.8682 2.26775 16.4939 1.89344C16.1196 1.51912 15.6119 1.30884 15.0825 1.30884C14.5532 1.30884 14.0455 1.51912 13.6712 1.89344L5.67352 9.86257V12.7138H8.52473L16.4939 4.71614Z" stroke="#9C8A8B" stroke-width="1.5" stroke-linecap="round" stroke-linejoin="round"/>
</svg>
