<svg width="20" height="17" viewBox="0 0 20 17" fill="none" xmlns="http://www.w3.org/2000/svg">
<path d="M3.25 0.387329H16.75C17.5801 0.387275 18.3788 0.704883 18.9822 1.275C19.5856 1.84512 19.948 2.62452 19.995 3.45333L20 3.63733V13.1373C20.0001 13.9675 19.6824 14.7662 19.1123 15.3696C18.5422 15.973 17.7628 16.3353 16.934 16.3823L16.75 16.3873H3.25C2.41986 16.3874 1.62117 16.0698 1.01777 15.4997C0.414367 14.9295 0.0519987 14.1501 0.00500012 13.3213L6.97518e-09 13.1373V3.63733C-5.43467e-05 2.80719 0.317554 2.0085 0.887672 1.4051C1.45779 0.801696 2.23719 0.439328 3.066 0.392329L3.25 0.387329ZM18.5 5.76033L10.35 10.0503C10.258 10.0989 10.1568 10.1279 10.053 10.1353C9.94921 10.1427 9.84499 10.1284 9.747 10.0933L9.651 10.0513L1.5 5.76133V13.1373C1.50002 13.5765 1.66517 13.9996 1.96268 14.3227C2.26019 14.6458 2.6683 14.8452 3.106 14.8813L3.25 14.8873H16.75C17.1893 14.8873 17.6126 14.722 17.9357 14.4243C18.2588 14.1266 18.4581 13.7182 18.494 13.2803L18.5 13.1373V5.76033ZM16.75 1.88733H3.25C2.81081 1.88735 2.38768 2.0525 2.06461 2.35001C1.74154 2.64752 1.54214 3.05563 1.506 3.49333L1.5 3.63733V4.06633L10 8.54033L18.5 4.06533V3.63733C18.5 3.19798 18.3347 2.77472 18.037 2.45162C17.7392 2.12852 17.3309 1.92923 16.893 1.89333L16.75 1.88733Z" fill="#1D61DF"/>
</svg>
