<svg width="40" height="49" viewBox="0 0 40 49" fill="none" xmlns="http://www.w3.org/2000/svg">
<path d="M26.75 1.76849H6.5C5.30653 1.76849 4.16193 2.2426 3.31802 3.08651C2.47411 3.93043 2 5.07502 2 6.26849V42.2685C2 43.462 2.47411 44.6066 3.31802 45.4505C4.16193 46.2944 5.30653 46.7685 6.5 46.7685H33.5C34.6935 46.7685 35.8381 46.2944 36.682 45.4505C37.5259 44.6066 38 43.462 38 42.2685V13.0185L26.75 1.76849Z" stroke="#1D61DF" stroke-width="3" stroke-linecap="round" stroke-linejoin="round"/>
<path d="M24.4995 1.76849V10.7685C24.4995 11.962 24.9736 13.1066 25.8175 13.9505C26.6614 14.7944 27.806 15.2685 28.9995 15.2685H37.9995M15.4995 24.2685C14.9028 24.2685 14.3305 24.5055 13.9085 24.9275C13.4866 25.3495 13.2495 25.9218 13.2495 26.5185V28.7685C13.2495 29.3652 13.0125 29.9375 12.5905 30.3595C12.1685 30.7814 11.5962 31.0185 10.9995 31.0185C11.5962 31.0185 12.1685 31.2555 12.5905 31.6775C13.0125 32.0995 13.2495 32.6718 13.2495 33.2685V35.5185C13.2495 36.1152 13.4866 36.6875 13.9085 37.1095C14.3305 37.5314 14.9028 37.7685 15.4995 37.7685M24.4995 37.7685C25.0962 37.7685 25.6685 37.5314 26.0905 37.1095C26.5125 36.6875 26.7495 36.1152 26.7495 35.5185V33.2685C26.7495 32.6718 26.9866 32.0995 27.4085 31.6775C27.8305 31.2555 28.4028 31.0185 28.9995 31.0185C28.4028 31.0185 27.8305 30.7814 27.4085 30.3595C26.9866 29.9375 26.7495 29.3652 26.7495 28.7685V26.5185C26.7495 25.9218 26.5125 25.3495 26.0905 24.9275C25.6685 24.5055 25.0962 24.2685 24.4995 24.2685" stroke="#1D61DF" stroke-width="3" stroke-linecap="round" stroke-linejoin="round"/>
</svg>
