<svg width="16" height="17" viewBox="0 0 16 17" fill="none" xmlns="http://www.w3.org/2000/svg">
<path d="M8 0.387329C6.41775 0.387329 4.87103 0.856521 3.55544 1.73557C2.23985 2.61462 1.21447 3.86405 0.608967 5.32586C0.00346628 6.78767 -0.15496 8.3962 0.153721 9.94805C0.462403 11.4999 1.22433 12.9254 2.34315 14.0442C3.46197 15.163 4.88743 15.9249 6.43928 16.2336C7.99113 16.5423 9.59966 16.3839 11.0615 15.7784C12.5233 15.1729 13.7727 14.1475 14.6518 12.8319C15.5308 11.5163 16 9.96958 16 8.38733C15.9976 6.26635 15.1539 4.23293 13.6542 2.73317C12.1544 1.23341 10.121 0.389772 8 0.387329ZM14.74 7.77194H11.6762C11.5385 4.96348 10.4569 2.97733 9.57 1.80271C10.9471 2.13342 12.1862 2.88684 13.1135 3.95734C14.0408 5.02784 14.6099 6.36172 14.7408 7.77194H14.74ZM5.55616 9.00271H10.4438C10.2662 12.2035 8.73385 14.165 8 14.9258C7.26539 14.1642 5.73385 12.2027 5.55616 9.00271ZM5.55616 7.77194C5.73385 4.57117 7.26616 2.60964 8 1.84887C8.73462 2.61271 10.2662 4.57425 10.4438 7.77194H5.55616ZM6.43 1.80271C5.54308 2.97733 4.46154 4.96348 4.32385 7.77194H1.25923C1.39015 6.36172 1.95916 5.02784 2.88647 3.95734C3.81377 2.88684 5.05287 2.13342 6.43 1.80271ZM1.25923 9.00271H4.32385C4.46385 11.8112 5.54308 13.7973 6.43 14.9719C5.05287 14.6412 3.81377 13.8878 2.88647 12.8173C1.95916 11.7468 1.39015 10.4129 1.25923 9.00271ZM9.56692 14.9719C10.4538 13.7973 11.5331 11.8112 11.6731 9.00271H14.7377C14.607 10.4125 14.0384 11.7461 13.1117 12.8166C12.185 13.887 10.9466 14.6407 9.57 14.9719H9.56692Z" fill="#1D61DF"/>
</svg>
