<svg width="101" height="45" viewBox="0 0 101 45" fill="none" xmlns="http://www.w3.org/2000/svg">
<path d="M92.0652 42.5445C89.8914 42.5445 88.2204 41.9307 87.0485 40.7029C85.8765 39.4583 85.2915 37.735 85.2915 35.5367C85.2915 34.4798 85.4448 33.5243 85.7494 32.672C86.0728 31.8028 86.5139 31.0613 87.0746 30.4474C87.6522 29.8336 88.3569 29.3736 89.1886 29.0657C90.0372 28.741 90.996 28.5795 92.0671 28.5795C93.1381 28.5795 94.0614 28.741 94.8932 29.0657C95.7417 29.3736 96.4557 29.8336 97.0333 30.4474C97.6277 31.0613 98.0781 31.8028 98.3828 32.672C98.7061 33.5243 98.8669 34.4798 98.8669 35.5367C98.8669 37.7537 98.2725 39.4752 97.0838 40.7029C95.9118 41.9307 94.239 42.5445 92.0671 42.5445H92.0652ZM92.0652 31.8009C90.9624 31.8009 90.1475 32.1595 89.6204 32.8747C89.0933 33.5918 88.8316 34.4854 88.8316 35.5611C88.8316 36.6368 89.0952 37.5566 89.6204 38.2719C90.1475 38.989 90.9624 39.3457 92.0652 39.3457C93.168 39.3457 93.9754 38.9871 94.4838 38.2719C94.9922 37.5566 95.2483 36.6518 95.2483 35.5611C95.2483 34.4704 94.9941 33.5918 94.4838 32.8747C93.9735 32.1576 93.168 31.8009 92.0652 31.8009Z" fill="#1E1E1E"/>
<path d="M82.0133 39.3213C82.2844 39.3213 82.5909 39.2706 82.9311 39.1673C83.2712 39.0641 83.5684 38.9364 83.8226 38.7844L84.8413 41.5214C84.6039 41.6754 84.331 41.8199 84.0264 41.957C83.7385 42.0771 83.4152 42.1879 83.0582 42.2892C82.718 42.3737 82.3965 42.4338 82.09 42.4676C81.7834 42.5014 81.5049 42.5183 81.2489 42.5183C80.4339 42.5183 79.7125 42.4075 79.0844 42.186C78.4732 41.9645 77.963 41.6322 77.5555 41.1891C77.1817 40.8137 76.9013 40.3275 76.7144 39.7305C76.5443 39.1335 76.4602 38.4596 76.4602 37.7106V32.0056H74.4229V28.8593H76.4602V25.176H80.0508V28.8593H83.9983V32.0056H80.0508V36.8658C80.0508 37.1737 80.0676 37.4703 80.1012 37.7613C80.1517 38.0335 80.2452 38.2906 80.3816 38.5291C80.5349 38.7675 80.7386 38.9646 80.9928 39.1166C81.2638 39.2537 81.604 39.3213 82.0115 39.3213H82.0133Z" fill="#1E1E1E"/>
<path d="M67.3386 39.6029C67.8488 39.6029 68.2806 39.5259 68.6376 39.372C69.0114 39.2011 69.3161 38.9289 69.5553 38.5535H73.3253C73.1384 39.2518 72.8506 39.8582 72.4599 40.3688C72.0861 40.8813 71.6282 41.298 71.0843 41.6228C70.5572 41.9476 69.9721 42.186 69.3273 42.3399C68.6825 42.477 68.0021 42.5445 67.29 42.5445C65.1162 42.5445 63.4695 41.9307 62.3499 40.7029C61.2471 39.4752 60.6938 37.7519 60.6938 35.5367C60.6938 34.5305 60.8378 33.6012 61.1275 32.749C61.434 31.8967 61.8583 31.1627 62.4004 30.5488C62.9443 29.918 63.6134 29.4318 64.4115 29.0902C65.2265 28.7485 66.1517 28.5777 67.1872 28.5777C68.3927 28.5777 69.4376 28.7917 70.3198 29.2178C71.202 29.644 71.8992 30.2315 72.4076 30.9824C72.9347 31.7165 73.2824 32.5762 73.4524 33.5656C73.6394 34.5549 73.6394 35.6118 73.4524 36.7382H64.2844C64.3517 37.5397 64.6321 38.2212 65.1255 38.7844C65.6171 39.3307 66.3573 39.6029 67.3404 39.6029H67.3386ZM70.1142 34.2564C70.1142 33.8303 70.0376 33.4548 69.8843 33.13C69.731 32.7884 69.5273 32.5162 69.2731 32.3116C69.0189 32.09 68.7124 31.9286 68.3554 31.8253C68.0152 31.7221 67.66 31.6714 67.2862 31.6714C66.3872 31.6883 65.6825 31.9361 65.1723 32.4129C64.6807 32.8729 64.391 33.4867 64.3069 34.2545H70.1142V34.2564Z" fill="#1E1E1E"/>
<path d="M49.7578 30.5732C50.8437 29.261 52.1858 28.5946 53.782 28.5777C54.6474 28.5608 55.4118 28.7053 56.0735 29.0132C56.7352 29.3023 57.2698 29.704 57.6772 30.2146C58.1688 30.8116 58.509 31.51 58.6959 32.3115C58.8828 33.0962 58.9763 33.9748 58.9763 34.9454V42.338H55.3595V35.2269C55.3595 34.7501 55.309 34.2977 55.2062 33.8716C55.1221 33.4285 54.9689 33.0531 54.7483 32.7452C54.5278 32.4204 54.2306 32.182 53.8567 32.0281C53.4997 31.8741 53.0923 31.7972 52.6343 31.7972C52.0568 31.8141 51.5652 31.9417 51.1577 32.1801C50.7671 32.4185 50.4699 32.7264 50.2662 33.1019C50.0624 33.4604 49.9185 33.8697 49.8325 34.3296C49.7652 34.7726 49.7297 35.2251 49.7297 35.685V42.3362H46.1392V28.8555H49.5765L49.754 30.5694L49.7578 30.5732Z" fill="#1E1E1E"/>
<path d="M93.7659 19.0411C93.222 19.6212 92.6108 20.0474 91.9323 20.3196C91.2706 20.5749 90.4632 20.7194 89.5137 20.7551C88.6314 20.7551 87.8165 20.618 87.0689 20.3458C86.3212 20.0567 85.6764 19.6287 85.1325 19.0674C84.4876 18.386 84.0297 17.5919 83.7568 16.6889C83.5026 15.786 83.3755 14.8642 83.3755 13.9256C83.3755 11.7254 83.9867 9.96079 85.2091 8.62981C85.753 8.04973 86.4315 7.59731 87.2464 7.27442C88.0614 6.95153 88.9866 6.78821 90.0221 6.78821C90.8034 6.78821 91.4987 6.90835 92.1099 7.14677C92.7379 7.36828 93.265 7.70056 93.6893 8.14359V2.44045H97.306V20.5505H93.9696L93.7659 19.0411ZM90.3529 17.5581C91.4389 17.5243 92.2631 17.1582 92.8239 16.458C93.4014 15.7409 93.6893 14.8642 93.6893 13.8242C93.6893 12.6978 93.4014 11.7855 92.8239 11.0872C92.2463 10.3888 91.4052 10.0303 90.3024 10.0134C89.7417 10.0134 89.2501 10.1072 88.8258 10.2949C88.4184 10.4827 88.0707 10.7549 87.781 11.1134C87.51 11.4551 87.3062 11.855 87.1698 12.3149C87.0334 12.7579 86.9661 13.2441 86.9661 13.7735C86.9661 14.3367 87.0334 14.8473 87.1698 15.3091C87.3062 15.7522 87.51 16.1445 87.781 16.4862C88.0688 16.8278 88.4258 17.0907 88.8501 17.2784C89.2912 17.4661 89.7922 17.56 90.3529 17.56V17.5581Z" fill="#1E1E1E"/>
<path d="M77.6879 8.75933C78.2318 8.11168 78.8093 7.62546 79.4205 7.3007C80.0485 6.97593 80.7962 6.81448 81.6616 6.81448C81.8822 6.81448 82.0952 6.82387 82.299 6.84077C82.5027 6.85766 82.6896 6.88394 82.8597 6.91773V10.2424C82.4691 10.2424 82.0709 10.2518 81.6635 10.2687C81.2728 10.2687 80.899 10.3024 80.542 10.3719C80.185 10.4395 79.8373 10.5502 79.4972 10.7042C79.1738 10.8412 78.886 11.0458 78.6318 11.3181C78.2411 11.7611 77.9944 12.2398 77.8935 12.7504C77.8093 13.2629 77.7664 13.8411 77.7664 14.4906V20.5523H74.1758V7.06979H77.486L77.6897 8.75746L77.6879 8.75933Z" fill="#1E1E1E"/>
<path d="M68.5124 18.8872C68.0021 19.5687 67.3834 20.0549 66.6526 20.3458C65.9218 20.6349 65.0732 20.772 64.105 20.7551C62.8658 20.7213 61.8303 20.3721 60.9985 19.7057C60.5574 19.3302 60.2098 18.8872 59.9537 18.3747C59.7163 17.8453 59.5967 17.2239 59.5967 16.5068C59.6135 15.7728 59.7742 15.1252 60.0808 14.562C60.4041 13.9819 60.8864 13.5051 61.5331 13.1296C62.077 12.8405 62.6882 12.6359 63.3667 12.5158C64.062 12.3956 64.819 12.3374 65.6339 12.3374H68.3853C68.4357 11.502 68.2413 10.8788 67.8002 10.4695C67.3759 10.0434 66.7722 9.82187 65.9928 9.80498C65.7386 9.80498 65.4751 9.82187 65.204 9.85567C64.933 9.88946 64.6769 9.95892 64.4396 10.0603C64.219 10.1635 64.0227 10.3081 63.8545 10.4958C63.7013 10.6666 63.6003 10.8788 63.548 11.136H59.8546C59.9387 10.3175 60.1612 9.63602 60.5163 9.08974C60.8901 8.52656 61.3574 8.07602 61.9163 7.73435C62.477 7.39269 63.0957 7.15428 63.776 7.01724C64.4713 6.8633 65.1853 6.78633 65.9162 6.78633C66.3236 6.78633 66.7404 6.81261 67.1647 6.8633C67.589 6.89709 68.0058 6.98344 68.4133 7.11861C68.8208 7.23875 69.2021 7.40771 69.5591 7.6311C69.9329 7.83572 70.2806 8.10793 70.6039 8.44959C71.1815 9.11414 71.5385 9.88195 71.673 10.7511C71.8263 11.6034 71.8936 12.4388 71.8768 13.2573V20.5467H68.5909L68.5142 18.8834L68.5124 18.8872ZM68.3853 14.5901H65.7629C65.5087 14.5901 65.219 14.6164 64.8975 14.6671C64.5741 14.7178 64.2956 14.8117 64.0564 14.9487C63.819 15.0857 63.6153 15.2641 63.4452 15.4856C63.2919 15.7071 63.2153 15.9793 63.2153 16.3041C63.2153 16.5763 63.2658 16.8166 63.3686 17.0212C63.4882 17.2258 63.6321 17.3967 63.8022 17.5337C63.9891 17.6707 64.2097 17.7815 64.4639 17.866C64.7181 17.9336 64.9741 17.9692 65.2283 17.9692C65.7199 17.9861 66.1797 17.9016 66.604 17.7139C67.0451 17.5262 67.4283 17.2615 67.7498 16.9217C67.9535 16.6495 68.1068 16.3416 68.2077 16C68.3273 15.6414 68.3853 15.1721 68.3853 14.5939V14.5901Z" fill="#1E1E1E"/>
<path d="M52.2792 17.5581C52.9577 17.5581 53.4923 17.3967 53.8829 17.0719C54.2904 16.7471 54.5371 16.3811 54.6212 15.9718H58.3912C58.2716 16.841 58.0267 17.575 57.6529 18.172C57.2791 18.7689 56.8118 19.2627 56.2529 19.655C55.709 20.0474 55.0903 20.3289 54.3932 20.4998C53.6979 20.6706 52.9745 20.7551 52.2287 20.7551C51.1073 20.7551 50.1316 20.6011 49.2998 20.2952C48.4849 19.9704 47.8064 19.5105 47.2625 18.9135C46.7186 18.2996 46.3036 17.5656 46.0139 16.7133C45.7429 15.8442 45.6064 14.8717 45.6064 13.7979C45.6064 12.7241 45.7597 11.8024 46.0644 10.9332C46.3709 10.064 46.8027 9.32252 47.3634 8.70865C47.941 8.09479 48.6456 7.62547 49.4774 7.30258C50.3091 6.96092 51.2605 6.79008 52.3297 6.79008C53.1109 6.79008 53.8399 6.88395 54.5203 7.07168C55.2156 7.2594 55.8268 7.5485 56.3539 7.94085C56.8978 8.3332 57.3389 8.83631 57.6791 9.45017C58.0361 10.0471 58.2734 10.7624 58.3931 11.5996H54.6231C54.539 11.1904 54.2829 10.8243 53.8586 10.4996C53.4511 10.1748 52.9166 10.0134 52.2549 10.0134C51.6942 10.0134 51.2101 10.1166 50.8026 10.3212C50.3951 10.5258 50.0718 10.8074 49.8344 11.166C49.597 11.5246 49.4269 11.9338 49.3241 12.3937C49.2213 12.8537 49.1708 13.3399 49.1708 13.8524C49.1708 14.3987 49.2307 14.9018 49.3484 15.3617C49.468 15.8047 49.6456 16.1971 49.883 16.5387C50.1204 16.8635 50.4344 17.1188 50.825 17.3065C51.2325 17.4774 51.7166 17.5619 52.2773 17.5619L52.2792 17.5581Z" fill="#1E1E1E"/>
<g clip-path="url(#clip0_446_126)">
<path fill-rule="evenodd" clip-rule="evenodd" d="M7.57978 43.9221C6.1387 43.9221 4.96048 43.3649 4.26106 42.3542C3.56164 41.3482 3.44429 40.0447 3.93717 38.6893L11.2552 18.4804H19.4229C22.92 18.4804 26.741 15.7931 27.938 12.4918L30.6465 5.0109H37.5515C38.9879 5.0109 40.1708 5.56819 40.8702 6.57415C41.5743 7.58484 41.687 8.88833 41.1988 10.2438L30.6606 39.3363C29.7312 41.9055 26.8631 43.9221 24.1405 43.9221H7.57978Z" fill="#143BAF"/>
<path d="M37.547 5.95546C39.8659 5.95546 41.1051 7.72652 40.3118 9.92263L29.7736 39.0151C28.9803 41.2065 26.4549 42.9776 24.1313 42.9776H7.57998C5.26111 42.9776 4.02187 41.2065 4.81517 39.0151L5.3409 37.5605L11.9079 19.4249H19.4185C23.2864 19.4249 27.4923 16.4637 28.816 12.8177L29.8816 9.8754L31.2992 5.95546H37.547ZM37.547 4.06634H29.9848L29.5342 5.30844L28.1166 9.22837L27.051 12.1707C25.9949 15.0799 22.4978 17.5358 19.4185 17.5358H10.5936L10.1429 18.7779L3.57593 36.9135L3.05019 38.3681C2.45874 39.9975 2.61834 41.6505 3.48674 42.902C4.35515 44.1536 5.84787 44.8714 7.57529 44.8714H24.1313C27.2247 44.8714 30.4777 42.5856 31.5339 39.6669L42.0721 10.5744C42.6635 8.94028 42.5039 7.2873 41.6308 6.03575C40.7624 4.78421 39.2697 4.06634 37.5423 4.06634H37.547Z" fill="white"/>
<path fill-rule="evenodd" clip-rule="evenodd" d="M29.8816 9.83289L28.8161 12.7752C27.4924 16.4259 23.2818 19.3824 19.4185 19.3824H15.8745L17.907 13.8001C18.7003 11.6087 21.2258 9.83289 23.5493 9.83289H29.8863H29.8816Z" fill="white"/>
<path fill-rule="evenodd" clip-rule="evenodd" d="M5.06426 38.4484C3.64664 38.4484 2.43557 37.8769 1.74554 36.8804C1.05551 35.8839 0.933464 34.5474 1.42165 33.2108L11.4951 5.52569C12.4246 2.95648 15.288 0.939835 18.0105 0.939835H32.4824C33.9 0.939835 35.1158 1.51129 35.8058 2.50781C36.5052 3.51377 36.6226 4.81726 36.1297 6.17271L36.1015 6.24355L35.1674 8.81749C34.7731 9.92262 33.5855 10.7586 32.4073 10.7586H23.5355C21.6156 10.7586 19.4328 12.2935 18.7757 14.107L10.6174 36.5073C10.2184 37.6125 9.03545 38.4437 7.85723 38.4437H5.05017L5.06426 38.4484ZM18.5597 5.05813C17.4003 5.05813 16.0813 5.9838 15.6823 7.08421C15.5368 7.49038 15.5461 7.84459 15.7151 8.08545C15.8841 8.32631 16.2127 8.45855 16.6446 8.45855C17.7852 8.45855 19.1324 7.51399 19.522 6.43247C19.6722 6.02158 19.6629 5.66737 19.4939 5.42651C19.3249 5.18564 18.9963 5.0534 18.5597 5.0534V5.05813Z" fill="#1D61DF"/>
<path d="M32.4869 1.88912C34.8058 1.88912 36.0497 3.66017 35.2564 5.85156L35.2376 5.89878L34.2941 8.49633C34.0312 9.22837 33.1863 9.81872 32.4165 9.81872H23.5447C21.2258 9.81872 18.7004 11.5945 17.9024 13.7859L15.8698 19.3682L9.74406 36.1862C9.48119 36.9135 8.63625 37.5038 7.86642 37.5038H5.05936C2.74049 37.5038 1.50125 35.7281 2.29455 33.5367L12.3774 5.85156C13.1707 3.66017 15.6915 1.88912 18.015 1.88912H32.4869ZM16.6444 9.40311C18.1887 9.40311 19.8739 8.21768 20.4043 6.75834C20.9347 5.29426 20.1086 4.11356 18.5595 4.11356C17.0105 4.11356 15.3347 5.29426 14.7996 6.75834C14.2738 8.21768 15.1 9.40311 16.6444 9.40311ZM32.4869 -7.41333e-06H18.015C14.9216 -7.41333e-06 11.6733 2.28583 10.6172 5.20453L0.538962 32.8849C-0.052492 34.519 0.107107 36.172 0.975512 37.4235C1.84392 38.6751 3.33663 39.393 5.06406 39.393H7.87112C9.42016 39.393 10.988 38.2926 11.5137 36.8285L17.6348 20.02L19.6673 14.4376C20.1931 12.983 22.005 11.7078 23.5447 11.7078H32.4165C33.9702 11.7078 35.538 10.6027 36.0591 9.13391L36.9885 6.56942L36.9979 6.55053L37.0073 6.5222L37.0167 6.49386C37.6081 4.86449 37.4485 3.21623 36.5801 1.96468C35.707 0.713137 34.2143 -0.00473022 32.4869 -0.00473022V-7.41333e-06ZM16.5317 7.50926C16.5364 7.48093 16.5505 7.44314 16.5646 7.40536C16.8274 6.68749 17.7944 6.00269 18.5595 6.00269C18.6018 6.00269 18.6393 6.00269 18.6722 6.00741C18.6628 6.03575 18.6534 6.06881 18.6393 6.10659C18.3812 6.81973 17.3954 7.51399 16.6444 7.51399C16.6021 7.51399 16.5646 7.51399 16.5317 7.50926Z" fill="white"/>
<path fill-rule="evenodd" clip-rule="evenodd" d="M20.4042 6.75835C19.8784 8.2177 18.1933 9.40312 16.6442 9.40312C15.0952 9.40312 14.2737 8.2177 14.7994 6.75835C15.3299 5.29427 17.0104 4.11357 18.5594 4.11357C20.1084 4.11357 20.9346 5.29427 20.4042 6.75835Z" fill="white"/>
</g>
<defs>
<clipPath id="clip0_446_126">
<rect width="42.242" height="44.8667" fill="white" transform="translate(0.187012)"/>
</clipPath>
</defs>
</svg>
