<svg width="16" height="17" viewBox="0 0 16 17" fill="none" xmlns="http://www.w3.org/2000/svg">
<path d="M14.6667 0.387329H1.33333C0.979711 0.387329 0.640572 0.527805 0.390524 0.777853C0.140476 1.0279 0 1.36704 0 1.72066V15.054C0 15.4076 0.140476 15.7467 0.390524 15.9968C0.640572 16.2468 0.979711 16.3873 1.33333 16.3873H10.3908C10.566 16.3879 10.7395 16.3536 10.9013 16.2865C11.0631 16.2194 11.21 16.1208 11.3333 15.9965L15.6092 11.7207C15.7335 11.5973 15.8321 11.4504 15.8992 11.2886C15.9663 11.1268 16.0006 10.9533 16 10.7782V1.72066C16 1.36704 15.8595 1.0279 15.6095 0.777853C15.3594 0.527805 15.0203 0.387329 14.6667 0.387329ZM1.33333 1.72066H14.6667V10.3873H10.6667C10.4899 10.3873 10.3203 10.4576 10.1953 10.5826C10.0702 10.7076 10 10.8772 10 11.054V15.054H1.33333V1.72066ZM13.7242 11.7207L11.3333 14.1115V11.7207H13.7242Z" fill="#1D61DF"/>
</svg>
