<svg width="16" height="15" viewBox="0 0 16 15" fill="none" xmlns="http://www.w3.org/2000/svg">
<path d="M14.7692 2.46422H11.6923V1.84884C11.6923 1.35921 11.4978 0.889633 11.1516 0.543412C10.8054 0.197191 10.3358 0.00268555 9.84615 0.00268555H6.15385C5.66422 0.00268555 5.19464 0.197191 4.84842 0.543412C4.5022 0.889633 4.30769 1.35921 4.30769 1.84884V2.46422H1.23077C0.904349 2.46422 0.591298 2.59389 0.360484 2.82471C0.12967 3.05552 0 3.36857 0 3.69499V13.5411C0 13.8676 0.12967 14.1806 0.360484 14.4114C0.591298 14.6422 0.904349 14.7719 1.23077 14.7719H14.7692C15.0957 14.7719 15.4087 14.6422 15.6395 14.4114C15.8703 14.1806 16 13.8676 16 13.5411V3.69499C16 3.36857 15.8703 3.05552 15.6395 2.82471C15.4087 2.59389 15.0957 2.46422 14.7692 2.46422ZM5.53846 1.84884C5.53846 1.68563 5.6033 1.5291 5.7187 1.4137C5.83411 1.29829 5.99064 1.23345 6.15385 1.23345H9.84615C10.0094 1.23345 10.1659 1.29829 10.2813 1.4137C10.3967 1.5291 10.4615 1.68563 10.4615 1.84884V2.46422H5.53846V1.84884ZM14.7692 3.69499V6.89576C12.6921 8.02636 10.3649 8.61849 8 8.61807C5.63525 8.6184 3.30805 8.02656 1.23077 6.89653V3.69499H14.7692ZM14.7692 13.5411H1.23077V8.28269C3.33841 9.31358 5.65375 9.84927 8 9.84884C10.3463 9.84889 12.6616 9.31295 14.7692 8.28192V13.5411ZM6.15385 6.77192C6.15385 6.60871 6.21868 6.45218 6.33409 6.33677C6.4495 6.22137 6.60602 6.15653 6.76923 6.15653H9.23077C9.39398 6.15653 9.55051 6.22137 9.66591 6.33677C9.78132 6.45218 9.84615 6.60871 9.84615 6.77192C9.84615 6.93513 9.78132 7.09165 9.66591 7.20706C9.55051 7.32247 9.39398 7.3873 9.23077 7.3873H6.76923C6.60602 7.3873 6.4495 7.32247 6.33409 7.20706C6.21868 7.09165 6.15385 6.93513 6.15385 6.77192Z" fill="#1D61DF"/>
</svg>
