<svg width="17" height="16" viewBox="0 0 17 16" fill="none" xmlns="http://www.w3.org/2000/svg">
<path d="M15.3847 4.21399C15.7643 3.83448 15.9776 3.31972 15.9777 2.78295C15.9777 2.24618 15.7646 1.73136 15.3851 1.35176C15.0056 0.972153 14.4908 0.758856 13.954 0.758789C13.4172 0.758722 12.9024 0.97189 12.5228 1.3514L2.94064 10.9357C2.77394 11.102 2.65066 11.3066 2.58165 11.5317L1.63319 14.6563C1.61464 14.7184 1.61324 14.7844 1.62914 14.8472C1.64504 14.91 1.67765 14.9674 1.72351 15.0132C1.76938 15.0589 1.82678 15.0915 1.88963 15.1073C1.95248 15.1231 2.01843 15.1216 2.0805 15.1029L5.20587 14.1552C5.43072 14.0868 5.63535 13.9643 5.8018 13.7983L15.3847 4.21399Z" stroke="white" stroke-width="1.5" stroke-linecap="round" stroke-linejoin="round"/>
</svg>
