<svg width="16" height="17" viewBox="0 0 16 17" fill="none" xmlns="http://www.w3.org/2000/svg">
<path d="M8 0.387329C9.58225 0.387329 11.129 0.856521 12.4446 1.73557C13.7602 2.61462 14.7855 3.86405 15.391 5.32586C15.9965 6.78767 16.155 8.3962 15.8463 9.94805C15.5376 11.4999 14.7757 12.9254 13.6569 14.0442C12.538 15.163 11.1126 15.9249 9.56072 16.2336C8.00887 16.5423 6.40034 16.3839 4.93853 15.7784C3.47672 15.1729 2.22729 14.1475 1.34824 12.8319C0.469193 11.5163 9.53674e-07 9.96958 9.53674e-07 8.38733C0.00224018 6.26628 0.845815 4.23275 2.34562 2.73295C3.84542 1.23314 5.87895 0.389569 8 0.387329ZM12.1477 13.7335C11.7025 13.0372 11.0892 12.4643 10.3644 12.0674C9.63951 11.6705 8.8264 11.4624 8 11.4624C7.1736 11.4624 6.36049 11.6705 5.63563 12.0674C4.91077 12.4643 4.29749 13.0372 3.85231 13.7335C5.0382 14.6558 6.49767 15.1565 8 15.1565C9.50232 15.1565 10.9618 14.6558 12.1477 13.7335ZM10.4615 7.77194C10.4615 7.2851 10.3172 6.80918 10.0467 6.40439C9.77622 5.99959 9.39178 5.68409 8.94199 5.49778C8.4922 5.31147 7.99727 5.26272 7.51978 5.3577C7.04228 5.45268 6.60368 5.68712 6.25943 6.03137C5.91518 6.37562 5.68074 6.81423 5.58576 7.29172C5.49078 7.76921 5.53953 8.26414 5.72583 8.71393C5.91214 9.16372 6.22764 9.54816 6.63244 9.81864C7.03724 10.0891 7.51315 10.2335 8 10.2335C8.65284 10.2335 9.27894 9.97414 9.74057 9.51251C10.2022 9.05088 10.4615 8.42478 10.4615 7.77194ZM2.94154 12.8804C3.62787 11.8858 4.59294 11.1164 5.71538 10.6689C5.11245 10.194 4.67248 9.54301 4.45667 8.80648C4.24086 8.06995 4.25992 7.28447 4.51122 6.55929C4.76252 5.8341 5.23355 5.20524 5.85882 4.76017C6.48408 4.31509 7.2325 4.07593 8 4.07593C8.76749 4.07593 9.51591 4.31509 10.1412 4.76017C10.7664 5.20524 11.2375 5.8341 11.4888 6.55929C11.7401 7.28447 11.7591 8.06995 11.5433 8.80648C11.3275 9.54301 10.8875 10.194 10.2846 10.6689C11.4071 11.1164 12.3721 11.8858 13.0585 12.8804C13.9257 11.9051 14.4926 10.7 14.6907 9.41002C14.8889 8.12006 14.71 6.80032 14.1754 5.60971C13.6409 4.4191 12.7736 3.40839 11.678 2.69928C10.5824 1.99017 9.30509 1.6129 8 1.6129C6.69491 1.6129 5.41764 1.99017 4.322 2.69928C3.22636 3.40839 2.35907 4.4191 1.82455 5.60971C1.29004 6.80032 1.11109 8.12006 1.30927 9.41002C1.50744 10.7 2.07428 11.9051 2.94154 12.8804Z" fill="#1D61DF"/>
</svg>
