<svg width="16" height="17" viewBox="0 0 16 17" fill="none" xmlns="http://www.w3.org/2000/svg">
<path d="M15.2297 11.1441L11.4609 9.45526L11.4505 9.45045C11.2548 9.36677 11.0414 9.33319 10.8295 9.35274C10.6176 9.3723 10.4139 9.44438 10.2369 9.56246C10.216 9.57621 10.196 9.59116 10.1769 9.60726L8.22966 11.2673C6.99606 10.6681 5.72245 9.40405 5.12324 8.18644L6.78566 6.20962C6.80166 6.18962 6.81686 6.16962 6.83126 6.14802C6.9468 5.97146 7.0169 5.76908 7.03533 5.55888C7.05375 5.34867 7.01992 5.13718 6.93686 4.94321V4.93361L5.24324 1.15837C5.13344 0.904984 4.94462 0.693902 4.70499 0.55664C4.46536 0.419377 4.18776 0.363296 3.91363 0.396767C2.8296 0.539414 1.83456 1.07179 1.11436 1.89446C0.39416 2.71713 -0.00195276 3.77383 7.23896e-06 4.86721C7.23896e-06 11.2193 5.16804 16.3873 11.5201 16.3873C12.6135 16.3893 13.6702 15.9932 14.4928 15.273C15.3155 14.5528 15.8479 13.5577 15.9905 12.4737C16.0241 12.1997 15.9681 11.9221 15.831 11.6825C15.6939 11.4429 15.483 11.254 15.2297 11.1441ZM11.5201 15.1073C8.80516 15.1043 6.20228 14.0245 4.28254 12.1048C2.36279 10.185 1.28298 7.58214 1.28002 4.86721C1.27701 4.08599 1.55846 3.33039 2.07181 2.74152C2.58516 2.15264 3.29531 1.77075 4.06964 1.66718C4.06932 1.67037 4.06932 1.67359 4.06964 1.67678L5.74965 5.43682L4.09604 7.41604C4.07922 7.43532 4.06397 7.45592 4.05044 7.47764C3.93005 7.66237 3.85942 7.87508 3.84541 8.09513C3.83139 8.31519 3.87446 8.53513 3.97044 8.73365C4.69524 10.2161 6.18885 11.6985 7.68726 12.4225C7.88723 12.5176 8.10845 12.5591 8.3293 12.5432C8.55015 12.5272 8.76307 12.4542 8.94727 12.3313C8.96785 12.3175 8.98762 12.3025 9.00647 12.2865L10.9513 10.6273L14.7113 12.3113H14.7201C14.6178 13.0867 14.2365 13.7983 13.6475 14.3129C13.0585 14.8275 12.3022 15.1099 11.5201 15.1073Z" fill="#1D61DF"/>
</svg>
