<svg width="46" height="46" viewBox="0 0 46 46" fill="none" xmlns="http://www.w3.org/2000/svg">
<path d="M0.820801 20.7685H20.8208V0.768494H0.820801V20.7685ZM5.8208 5.76849H15.8208V15.7685H5.8208V5.76849ZM0.820801 45.7685H20.8208V25.7685H0.820801V45.7685ZM5.8208 30.7685H15.8208V40.7685H5.8208V30.7685ZM25.8208 0.768494V20.7685H45.8208V0.768494H25.8208ZM40.8208 15.7685H30.8208V5.76849H40.8208V15.7685ZM25.8458 25.7685H30.8458V30.7685H25.8458V25.7685ZM30.8458 30.7685H35.8458V35.7685H30.8458V30.7685ZM25.8458 35.7685H30.8458V40.7685H25.8458V35.7685ZM35.8458 35.7685H40.8458V40.7685H35.8458V35.7685ZM40.8458 40.7685H45.8458V45.7685H40.8458V40.7685ZM30.8458 40.7685H35.8458V45.7685H30.8458V40.7685ZM35.8458 25.7685H40.8458V30.7685H35.8458V25.7685ZM40.8458 30.7685H45.8458V35.7685H40.8458V30.7685Z" fill="#1D61DF"/>
</svg>
