<svg width="30" height="30" viewBox="0 0 30 30" fill="none" xmlns="http://www.w3.org/2000/svg">
<rect width="30" height="30" rx="15" fill="#F5F5F5"/>
<path d="M19.8535 19.146C19.8999 19.1925 19.9368 19.2476 19.9619 19.3083C19.9871 19.369 20 19.4341 20 19.4997C20 19.5654 19.9871 19.6305 19.9619 19.6912C19.9368 19.7519 19.8999 19.807 19.8535 19.8535C19.807 19.8999 19.7519 19.9368 19.6912 19.9619C19.6305 19.9871 19.5654 20 19.4997 20C19.4341 20 19.369 19.9871 19.3083 19.9619C19.2476 19.9368 19.1925 19.8999 19.146 19.8535L15 15.7068L10.854 19.8535C10.7602 19.9473 10.6329 20 10.5003 20C10.3676 20 10.2403 19.9473 10.1465 19.8535C10.0527 19.7597 10 19.6324 10 19.4997C10 19.3671 10.0527 19.2398 10.1465 19.146L14.2932 15L10.1465 10.854C10.0527 10.7602 10 10.6329 10 10.5003C10 10.3676 10.0527 10.2403 10.1465 10.1465C10.2403 10.0527 10.3676 10 10.5003 10C10.6329 10 10.7602 10.0527 10.854 10.1465L15 14.2932L19.146 10.1465C19.2398 10.0527 19.3671 10 19.4997 10C19.6324 10 19.7597 10.0527 19.8535 10.1465C19.9473 10.2403 20 10.3676 20 10.5003C20 10.6329 19.9473 10.7602 19.8535 10.854L15.7068 15L19.8535 19.146Z" fill="#876E70"/>
</svg>
