<svg width="46" height="39" viewBox="0 0 46 39" xmlns="http://www.w3.org/2000/svg" fill="none">
<path d="M45.496 11.3999C45.4153 14.1973 44.2651 16.8573 42.282 18.832L35.3018 25.8163C34.2852 26.8385 33.0759 27.6489 31.744 28.2005C30.412 28.7522 28.9839 29.0342 27.5422 29.0302H27.5322C26.0659 29.0292 24.6147 28.7343 23.2643 28.163C21.9139 27.5917 20.6917 26.7555 19.6699 25.7039C18.6481 24.6523 17.8473 23.4066 17.315 22.0404C16.7827 20.6741 16.5297 19.215 16.5707 17.7493C16.5827 17.3232 16.7635 16.9192 17.0733 16.6263C17.3832 16.3334 17.7967 16.1756 18.2229 16.1876C18.6491 16.1996 19.053 16.3804 19.3459 16.6902C19.6388 17 19.7966 17.4135 19.7846 17.8397C19.7554 18.8761 19.9341 19.9078 20.3104 20.8738C20.6866 21.8399 21.2527 22.7208 21.9751 23.4644C22.6975 24.208 23.5617 24.7992 24.5165 25.2032C25.4713 25.6071 26.4974 25.8156 27.5342 25.8163C28.5533 25.8188 29.5628 25.6193 30.5044 25.2293C31.446 24.8394 32.301 24.2667 33.0199 23.5444L40.0002 16.5642C41.4403 15.1059 42.245 13.1371 42.2386 11.0875C42.2322 9.03797 41.4152 7.07419 39.9659 5.62494C38.5167 4.17568 36.5529 3.35865 34.5033 3.35224C32.4538 3.34583 30.4849 4.15054 29.0266 5.5907L26.8171 7.80027C26.5133 8.08891 26.1087 8.24745 25.6897 8.24209C25.2707 8.23672 24.8703 8.06788 24.574 7.77155C24.2776 7.47523 24.1088 7.07486 24.1034 6.65583C24.0981 6.2368 24.2566 5.83225 24.5452 5.52843L26.7548 3.31887C27.7742 2.29911 28.9845 1.49018 30.3166 0.938269C31.6487 0.386362 33.0765 0.102295 34.5184 0.102295C35.9603 0.102295 37.3881 0.386362 38.7202 0.938269C40.0523 1.49018 41.2626 2.29911 42.282 3.31887C43.3379 4.37736 44.1674 5.63965 44.7199 7.0289C45.2724 8.41816 45.5365 9.90531 45.496 11.3999ZM19.182 30.9706L16.9725 33.1802C16.2519 33.9057 15.3942 34.4807 14.4493 34.8718C13.5044 35.2629 12.4912 35.4621 11.4686 35.458C9.93459 35.4568 8.43534 35.0009 7.16031 34.1479C5.88527 33.2949 4.89167 32.0832 4.30504 30.6657C3.71842 29.2483 3.5651 27.6888 3.86445 26.1842C4.1638 24.6797 4.90239 23.2976 5.9869 22.2127L12.9551 15.2324C14.0526 14.1291 15.4565 13.3813 16.9845 13.0861C18.5125 12.7909 20.0939 12.962 21.5234 13.5771C22.9529 14.1923 24.1645 15.223 25.0006 16.5355C25.8368 17.848 26.2591 19.3816 26.2125 20.9371C26.2005 21.3633 26.3583 21.7768 26.6512 22.0867C26.9441 22.3965 27.348 22.5773 27.7742 22.5893C28.2004 22.6013 28.6139 22.4435 28.9238 22.1506C29.2336 21.8577 29.4144 21.4537 29.4264 21.0275C29.465 19.5353 29.2 18.0509 28.6475 16.6642C28.095 15.2775 27.2666 14.0175 26.2125 12.9606C24.1539 10.903 21.3625 9.74705 18.4519 9.74705C15.5413 9.74705 12.7498 10.903 10.6913 12.9606L3.71506 19.9408C2.18088 21.4744 1.13573 23.4283 0.711679 25.5557C0.287632 27.6831 0.503724 29.8884 1.33265 31.893C2.16157 33.8976 3.56612 35.6115 5.3688 36.818C7.17148 38.0246 9.29138 38.6698 11.4606 38.6719C12.9026 38.6761 14.3311 38.3942 15.6634 37.8425C16.9956 37.2908 18.2053 36.4804 19.2222 35.458L21.4318 33.2485C21.6918 32.9421 21.8277 32.5495 21.8126 32.148C21.7974 31.7464 21.6324 31.3651 21.3501 31.0792C21.0677 30.7933 20.6885 30.6236 20.2872 30.6035C19.8858 30.5834 19.4916 30.7144 19.182 30.9706Z" fill="#1D61DF"/>
</svg>
