<svg width="19" height="23" viewBox="0 0 19 23" fill="none" xmlns="http://www.w3.org/2000/svg">
<path d="M13.3461 8.81028H15.2692C15.7792 8.81028 16.2683 9.01289 16.629 9.37354C16.9896 9.73419 17.1922 10.2233 17.1922 10.7334V19.9641C17.1922 20.4742 16.9896 20.9633 16.629 21.324C16.2683 21.6846 15.7792 21.8872 15.2692 21.8872H3.73069C3.22066 21.8872 2.73152 21.6846 2.37087 21.324C2.01023 20.9633 1.80762 20.4742 1.80762 19.9641V10.7334C1.80762 10.2233 2.01023 9.73419 2.37087 9.37354C2.73152 9.01289 3.22066 8.81028 3.73069 8.81028H5.65377M13.3461 5.73336L9.49993 1.88721M9.49993 1.88721L5.65377 5.73336M9.49993 1.88721V15.0122" stroke="#143BAF" stroke-width="2" stroke-linecap="round" stroke-linejoin="round"/>
</svg>
