<svg width="46" height="46" viewBox="0 0 46 46" fill="none" xmlns="http://www.w3.org/2000/svg">
<path d="M23 0.887207C10.58 0.887207 0.5 10.9672 0.5 23.3872C0.5 35.8072 10.58 45.8872 23 45.8872C35.42 45.8872 45.5 35.8072 45.5 23.3872C45.5 10.9672 35.42 0.887207 23 0.887207ZM33.44 16.1872C33.1025 19.7422 31.64 28.3822 30.8975 32.3647C30.5825 34.0522 29.9525 34.6147 29.3675 34.6822C28.0625 34.7947 27.0725 33.8272 25.8125 32.9947C23.8325 31.6897 22.7075 30.8797 20.795 29.6197C18.5675 28.1572 20.0075 27.3472 21.29 26.0422C21.6275 25.7047 27.3875 20.4622 27.5 19.9897C27.5156 19.9181 27.5135 19.8438 27.4939 19.7733C27.4743 19.7027 27.4378 19.638 27.3875 19.5847C27.2525 19.4722 27.0725 19.5172 26.915 19.5397C26.7125 19.5847 23.5625 21.6772 17.42 25.8172C16.52 26.4247 15.71 26.7397 14.99 26.7172C14.18 26.6947 12.65 26.2672 11.5025 25.8847C10.085 25.4347 8.9825 25.1872 9.0725 24.3997C9.1175 23.9947 9.68 23.5897 10.7375 23.1622C17.3075 20.3047 21.6725 18.4147 23.855 17.5147C30.11 14.9047 31.3925 14.4547 32.2475 14.4547C32.4275 14.4547 32.855 14.4997 33.125 14.7247C33.35 14.9047 33.4175 15.1522 33.44 15.3322C33.4175 15.4672 33.4625 15.8722 33.44 16.1872Z" fill="#1D61DF"/>
</svg>
