<svg width="17" height="18" viewBox="0 0 17 18" fill="none" xmlns="http://www.w3.org/2000/svg">
<path d="M15.8393 2.82338H12.4704V2.14961C12.4704 1.61353 12.2575 1.0994 11.8784 0.720326C11.4993 0.341255 10.9852 0.128296 10.4491 0.128296H6.40648C5.87039 0.128296 5.35626 0.341255 4.97719 0.720326C4.59812 1.0994 4.38516 1.61353 4.38516 2.14961V2.82338H1.0163C0.837606 2.82338 0.666229 2.89437 0.539873 3.02073C0.413516 3.14708 0.342529 3.31846 0.342529 3.49715C0.342529 3.67585 0.413516 3.84723 0.539873 3.97358C0.666229 4.09994 0.837606 4.17093 1.0163 4.17093H1.69007V16.2988C1.69007 16.6562 1.83205 16.999 2.08476 17.2517C2.33747 17.5044 2.68023 17.6464 3.03762 17.6464H13.818C14.1754 17.6464 14.5181 17.5044 14.7708 17.2517C15.0235 16.999 15.1655 16.6562 15.1655 16.2988V4.17093H15.8393C16.018 4.17093 16.1894 4.09994 16.3157 3.97358C16.4421 3.84723 16.5131 3.67585 16.5131 3.49715C16.5131 3.31846 16.4421 3.14708 16.3157 3.02073C16.1894 2.89437 16.018 2.82338 15.8393 2.82338ZM5.7327 2.14961C5.7327 1.97092 5.80369 1.79954 5.93005 1.67318C6.0564 1.54683 6.22778 1.47584 6.40648 1.47584H10.4491C10.6278 1.47584 10.7992 1.54683 10.9255 1.67318C11.0519 1.79954 11.1229 1.97092 11.1229 2.14961V2.82338H5.7327V2.14961ZM13.818 16.2988H3.03762V4.17093H13.818V16.2988ZM7.08025 7.53979V12.93C7.08025 13.1087 7.00926 13.28 6.8829 13.4064C6.75655 13.5327 6.58517 13.6037 6.40648 13.6037C6.22778 13.6037 6.0564 13.5327 5.93005 13.4064C5.80369 13.28 5.7327 13.1087 5.7327 12.93V7.53979C5.7327 7.36109 5.80369 7.18971 5.93005 7.06336C6.0564 6.937 6.22778 6.86601 6.40648 6.86601C6.58517 6.86601 6.75655 6.937 6.8829 7.06336C7.00926 7.18971 7.08025 7.36109 7.08025 7.53979ZM11.1229 7.53979V12.93C11.1229 13.1087 11.0519 13.28 10.9255 13.4064C10.7992 13.5327 10.6278 13.6037 10.4491 13.6037C10.2704 13.6037 10.099 13.5327 9.97268 13.4064C9.84632 13.28 9.77533 13.1087 9.77533 12.93V7.53979C9.77533 7.36109 9.84632 7.18971 9.97268 7.06336C10.099 6.937 10.2704 6.86601 10.4491 6.86601C10.6278 6.86601 10.7992 6.937 10.9255 7.06336C11.0519 7.18971 11.1229 7.36109 11.1229 7.53979Z" fill="#C03744"/>
</svg>
