<svg width="46" height="35" viewBox="0 0 46 35" fill="none" xmlns="http://www.w3.org/2000/svg">
<path d="M0.166748 6.01849C0.166748 4.52665 0.75938 3.09591 1.81427 2.04102C2.86916 0.986126 4.29991 0.393494 5.79175 0.393494H39.5417C41.0336 0.393494 42.4643 0.986126 43.5192 2.04102C44.5741 3.09591 45.1667 4.52665 45.1667 6.01849V28.5185C45.1667 30.0103 44.5741 31.4411 43.5192 32.496C42.4643 33.5509 41.0336 34.1435 39.5417 34.1435H5.79175C4.29991 34.1435 2.86916 33.5509 1.81427 32.496C0.75938 31.4411 0.166748 30.0103 0.166748 28.5185V6.01849ZM25.4792 10.2372C25.4792 10.6102 25.6274 10.9679 25.8911 11.2316C26.1549 11.4953 26.5125 11.6435 26.8855 11.6435H38.1355C38.5085 11.6435 38.8661 11.4953 39.1299 11.2316C39.3936 10.9679 39.5417 10.6102 39.5417 10.2372C39.5417 9.86428 39.3936 9.5066 39.1299 9.24288C38.8661 8.97915 38.5085 8.83099 38.1355 8.83099H26.8855C26.5125 8.83099 26.1549 8.97915 25.8911 9.24288C25.6274 9.5066 25.4792 9.86428 25.4792 10.2372ZM25.4792 17.2685C25.4792 17.6415 25.6274 17.9991 25.8911 18.2629C26.1549 18.5266 26.5125 18.6747 26.8855 18.6747H38.1355C38.5085 18.6747 38.8661 18.5266 39.1299 18.2629C39.3936 17.9991 39.5417 17.6415 39.5417 17.2685C39.5417 16.8955 39.3936 16.5378 39.1299 16.2741C38.8661 16.0104 38.5085 15.8622 38.1355 15.8622H26.8855C26.5125 15.8622 26.1549 16.0104 25.8911 16.2741C25.6274 16.5378 25.4792 16.8955 25.4792 17.2685ZM28.2917 24.2997C28.2917 24.6727 28.4399 25.0304 28.7036 25.2941C28.9674 25.5578 29.325 25.706 29.698 25.706H38.1355C38.5085 25.706 38.8661 25.5578 39.1299 25.2941C39.3936 25.0304 39.5417 24.6727 39.5417 24.2997C39.5417 23.9268 39.3936 23.5691 39.1299 23.3054C38.8661 23.0417 38.5085 22.8935 38.1355 22.8935H29.698C29.325 22.8935 28.9674 23.0417 28.7036 23.3054C28.4399 23.5691 28.2917 23.9268 28.2917 24.2997ZM25.4792 29.9247C25.4792 24.4882 20.4449 20.081 14.2292 20.081C8.36237 20.081 3.54175 24.0129 3.02425 29.0276C3.14332 29.6746 3.48543 30.2593 3.99107 30.6802C4.49671 31.101 5.13388 31.3313 5.79175 31.331H25.3667C25.4417 30.8716 25.4792 30.4029 25.4792 29.9247ZM19.8542 11.6435C19.8542 10.1517 19.2616 8.72091 18.2067 7.66602C17.1518 6.61113 15.7211 6.01849 14.2292 6.01849C12.7374 6.01849 11.3067 6.61113 10.2518 7.66602C9.19688 8.72091 8.60425 10.1517 8.60425 11.6435C8.60425 13.1353 9.19688 14.5661 10.2518 15.621C11.3067 16.6759 12.7374 17.2685 14.2292 17.2685C15.7211 17.2685 17.1518 16.6759 18.2067 15.621C19.2616 14.5661 19.8542 13.1353 19.8542 11.6435Z" fill="#1D61DF"/>
</svg>
