<svg width="20" height="21" viewBox="0 0 20 21" fill="none" xmlns="http://www.w3.org/2000/svg">
<path d="M10 0.5C8.02219 0.5 6.08879 1.08649 4.4443 2.1853C2.79981 3.28412 1.51809 4.8459 0.761209 6.67316C0.00433284 8.50042 -0.1937 10.5111 0.192152 12.4509C0.578004 14.3907 1.53041 16.1725 2.92894 17.5711C4.32746 18.9696 6.10929 19.922 8.0491 20.3078C9.98891 20.6937 11.9996 20.4957 13.8268 19.7388C15.6541 18.9819 17.2159 17.7002 18.3147 16.0557C19.4135 14.4112 20 12.4778 20 10.5C19.9972 7.84869 18.9427 5.30678 17.068 3.43202C15.1932 1.55727 12.6513 0.5028 10 0.5ZM10 18.9615C8.32647 18.9615 6.69052 18.4653 5.29902 17.5355C3.90753 16.6057 2.823 15.2842 2.18256 13.7381C1.54213 12.1919 1.37456 10.4906 1.70105 8.84923C2.02754 7.20786 2.83343 5.70016 4.01679 4.51679C5.20016 3.33342 6.70786 2.52754 8.34924 2.20105C9.99062 1.87456 11.6919 2.04212 13.2381 2.68256C14.7842 3.32299 16.1057 4.40753 17.0355 5.79902C17.9653 7.19051 18.4615 8.82646 18.4615 10.5C18.459 12.7434 17.5667 14.8941 15.9804 16.4804C14.3941 18.0667 12.2434 18.959 10 18.9615ZM9.23077 11.2692V5.88461C9.23077 5.6806 9.31182 5.48494 9.45607 5.34069C9.60033 5.19643 9.79599 5.11538 10 5.11538C10.204 5.11538 10.3997 5.19643 10.5439 5.34069C10.6882 5.48494 10.7692 5.6806 10.7692 5.88461V11.2692C10.7692 11.4732 10.6882 11.6689 10.5439 11.8132C10.3997 11.9574 10.204 12.0385 10 12.0385C9.79599 12.0385 9.60033 11.9574 9.45607 11.8132C9.31182 11.6689 9.23077 11.4732 9.23077 11.2692ZM11.1538 14.7308C11.1538 14.959 11.0862 15.1821 10.9594 15.3718C10.8326 15.5616 10.6524 15.7094 10.4416 15.7968C10.2307 15.8841 9.99872 15.907 9.7749 15.8624C9.55107 15.8179 9.34548 15.708 9.18411 15.5467C9.02274 15.3853 8.91285 15.1797 8.86833 14.9559C8.82381 14.732 8.84666 14.5 8.93399 14.2892C9.02132 14.0784 9.16921 13.8982 9.35896 13.7714C9.54871 13.6446 9.77179 13.5769 10 13.5769C10.306 13.5769 10.5995 13.6985 10.8159 13.9149C11.0323 14.1313 11.1538 14.4247 11.1538 14.7308Z" fill="#EDA145"/>
</svg>
