<svg width="25" height="25" viewBox="0 0 25 25" fill="none" xmlns="http://www.w3.org/2000/svg">
<path d="M23.3446 17.0224L17.6913 14.4892L17.6757 14.482C17.3822 14.3565 17.0621 14.3061 16.7442 14.3355C16.4264 14.3648 16.1209 14.4729 15.8553 14.65C15.824 14.6706 15.794 14.6931 15.7653 14.7172L12.8445 17.2072C10.9941 16.3084 9.08367 14.4124 8.18487 12.586L10.6785 9.62077C10.7025 9.59077 10.7253 9.56077 10.7469 9.52837C10.9202 9.26353 11.0254 8.95995 11.053 8.64465C11.0806 8.32935 11.0299 8.0121 10.9053 7.72115V7.70675L8.36487 2.0439C8.20015 1.66381 7.91693 1.34719 7.55749 1.14129C7.19804 0.935401 6.78164 0.851279 6.37045 0.901486C4.7444 1.11546 3.25185 1.91402 2.17154 3.14802C1.09124 4.38203 0.497071 5.96708 0.500011 7.60715C0.500011 17.1352 8.25207 24.8873 17.7801 24.8873C19.4202 24.8903 21.0052 24.2961 22.2393 23.2158C23.4733 22.1355 24.2718 20.6429 24.4858 19.0169C24.5361 18.6058 24.4521 18.1895 24.2465 17.8301C24.0408 17.4707 23.7244 17.1874 23.3446 17.0224ZM17.7801 22.9673C13.7077 22.9629 9.80342 21.3431 6.92381 18.4635C4.04419 15.5839 2.42447 11.6796 2.42002 7.60715C2.41551 6.43533 2.83769 5.30192 3.60772 4.41861C4.37774 3.53529 5.44297 2.96247 6.60445 2.8071C6.60397 2.81189 6.60397 2.81672 6.60445 2.8215L9.12447 8.46156L6.64405 11.4304C6.61883 11.4593 6.59595 11.4902 6.57565 11.5228C6.39507 11.7999 6.28913 12.1189 6.26811 12.449C6.24709 12.7791 6.31169 13.109 6.45565 13.4068C7.54286 15.6304 9.78328 17.854 12.0309 18.9401C12.3309 19.0827 12.6627 19.145 12.994 19.1211C13.3252 19.0971 13.6446 18.9876 13.9209 18.8033C13.9518 18.7826 13.9814 18.7602 14.0097 18.7361L16.9269 16.2472L22.567 18.7733H22.5802C22.4267 19.9364 21.8547 21.0038 20.9713 21.7757C20.0878 22.5476 18.9533 22.9713 17.7801 22.9673Z" fill="#F5F5F5"/>
</svg>
