<svg width="25" height="20" viewBox="0 0 25 20" fill="none" xmlns="http://www.w3.org/2000/svg">
<path d="M4.4 0.287354H20.6C21.5962 0.287288 22.5546 0.668418 23.2787 1.35256C24.0028 2.0367 24.4376 2.97199 24.494 3.96655L24.5 4.18735V15.5874C24.5001 16.5835 24.1189 17.5419 23.4348 18.266C22.7507 18.9901 21.8154 19.425 20.8208 19.4814L20.6 19.4874H4.4C3.40384 19.4874 2.44541 19.1063 1.72132 18.4221C0.99724 17.738 0.562398 16.8027 0.506 15.8082L0.5 15.5874V4.18735C0.499935 3.19119 0.881065 2.23276 1.56521 1.50868C2.24935 0.784594 3.18463 0.349752 4.1792 0.293354L4.4 0.287354ZM22.7 6.73495L12.92 11.883C12.8096 11.9413 12.6882 11.976 12.5636 11.9849C12.4391 11.9938 12.314 11.9766 12.1964 11.9346L12.0812 11.8842L2.3 6.73615V15.5874C2.30002 16.1144 2.49821 16.6221 2.85522 17.0098C3.21223 17.3975 3.70196 17.6368 4.2272 17.6802L4.4 17.6874H20.6C21.1272 17.6873 21.6351 17.489 22.0229 17.1317C22.4106 16.7744 22.6497 16.2844 22.6928 15.759L22.7 15.5874V6.73495ZM20.6 2.08735H4.4C3.87297 2.08737 3.36522 2.28556 2.97753 2.64257C2.58984 2.99958 2.35057 3.48931 2.3072 4.01455L2.3 4.18735V4.70215L12.5 10.071L22.7 4.70095V4.18735C22.7 3.66014 22.5016 3.15222 22.1443 2.7645C21.7871 2.37679 21.2971 2.13763 20.7716 2.09455L20.6 2.08735Z" fill="#F5F5F5"/>
</svg>
