<svg width="25" height="25" viewBox="0 0 25 25" fill="none" xmlns="http://www.w3.org/2000/svg">
<path d="M10.7223 7.99856C10.7223 7.64695 10.8266 7.30324 11.0219 7.01088C11.2173 6.71853 11.4949 6.49067 11.8198 6.35611C12.1446 6.22155 12.5021 6.18635 12.8469 6.25494C13.1918 6.32354 13.5086 6.49286 13.7572 6.74148C14.0058 6.99011 14.1751 7.30688 14.2437 7.65174C14.3123 7.99659 14.2771 8.35404 14.1426 8.67889C14.008 9.00373 13.7801 9.28139 13.4878 9.47673C13.1954 9.67208 12.8517 9.77634 12.5001 9.77634C12.0286 9.77634 11.5764 9.58904 11.243 9.25564C10.9096 8.92224 10.7223 8.47006 10.7223 7.99856ZM5.389 7.99856C5.389 6.11258 6.1382 4.30384 7.47179 2.97025C8.80538 1.63666 10.6141 0.887451 12.5001 0.887451C14.3861 0.887451 16.1948 1.63666 17.5284 2.97025C18.862 4.30384 19.6112 6.11258 19.6112 7.99856C19.6112 14.6597 13.2134 18.3919 12.9446 18.5486C12.8102 18.6253 12.6582 18.6657 12.5034 18.6657C12.3487 18.6657 12.1967 18.6253 12.0623 18.5486C11.7868 18.3919 5.389 14.6652 5.389 7.99856ZM7.16677 7.99856C7.16677 12.6875 11.149 15.7997 12.5001 16.7208C13.8501 15.8008 17.8334 12.6875 17.8334 7.99856C17.8334 6.58407 17.2715 5.22752 16.2713 4.22733C15.2712 3.22713 13.9146 2.66523 12.5001 2.66523C11.0856 2.66523 9.72907 3.22713 8.72887 4.22733C7.72868 5.22752 7.16677 6.58407 7.16677 7.99856ZM20.8079 15.513C20.5891 15.4407 20.3508 15.4562 20.1432 15.5562C19.9357 15.6562 19.775 15.8329 19.6952 16.0491C19.6154 16.2652 19.6226 16.5039 19.7153 16.7148C19.8081 16.9257 19.9791 17.0924 20.1923 17.1797C22.0268 17.8586 23.1668 18.7675 23.1668 19.5541C23.1668 21.0386 19.109 23.1097 12.5001 23.1097C5.89122 23.1097 1.83344 21.0386 1.83344 19.5541C1.83344 18.7675 2.97344 17.8586 4.80789 17.1808C5.02112 17.0935 5.19213 16.9268 5.28487 16.7159C5.37761 16.505 5.38483 16.2663 5.305 16.0502C5.22518 15.834 5.06454 15.6573 4.85697 15.5573C4.6494 15.4573 4.41111 15.4418 4.19233 15.5141C1.52455 16.4975 0.0556641 17.933 0.0556641 19.5541C0.0556641 23.0186 6.46789 24.8875 12.5001 24.8875C18.5323 24.8875 24.9446 23.0186 24.9446 19.5541C24.9446 17.933 23.4757 16.4975 20.8079 15.513Z" fill="#F5F5F5"/>
</svg>
