<svg width="25" height="25" viewBox="0 0 25 25" fill="none" xmlns="http://www.w3.org/2000/svg">
<path d="M22.5 0.887329H2.5C1.96957 0.887329 1.46086 1.09804 1.08579 1.47312C0.710713 1.84819 0.5 2.3569 0.5 2.88733V22.8873C0.5 23.4178 0.710713 23.9265 1.08579 24.3015C1.46086 24.6766 1.96957 24.8873 2.5 24.8873H16.0862C16.349 24.8882 16.6093 24.8368 16.852 24.7361C17.0947 24.6355 17.3149 24.4876 17.5 24.3011L23.9137 17.8873C24.1003 17.7023 24.2481 17.482 24.3488 17.2393C24.4494 16.9966 24.5008 16.7363 24.5 16.4736V2.88733C24.5 2.3569 24.2893 1.84819 23.9142 1.47312C23.5391 1.09804 23.0304 0.887329 22.5 0.887329ZM2.5 2.88733H22.5V15.8873H16.5C16.2348 15.8873 15.9804 15.9927 15.7929 16.1802C15.6053 16.3678 15.5 16.6221 15.5 16.8873V22.8873H2.5V2.88733ZM21.0862 17.8873L17.5 21.4736V17.8873H21.0862Z" fill="white"/>
</svg>
