<svg width="46" height="46" viewBox="0 0 46 46" fill="none" xmlns="http://www.w3.org/2000/svg">
<path d="M38.5292 7.43482C36.4664 5.35116 34.0094 3.69908 31.3014 2.57495C28.5934 1.45082 25.6887 0.877127 22.7567 0.887341C10.4718 0.887341 0.459297 10.8998 0.459297 23.1848C0.459297 27.1223 1.49429 30.9473 3.42929 34.3222L0.279297 45.8872L12.0918 42.7822C15.3543 44.5597 19.0217 45.5047 22.7567 45.5047C35.0417 45.5047 45.0542 35.4922 45.0542 23.2073C45.0542 17.2448 42.7367 11.6423 38.5292 7.43482ZM22.7567 41.7247C19.4267 41.7247 16.1642 40.8247 13.3068 39.1372L12.6318 38.7322L5.61178 40.5772L7.47928 33.7372L7.02928 33.0397C5.17921 30.0854 4.19685 26.6706 4.19429 23.1848C4.19429 12.9698 12.5193 4.64483 22.7342 4.64483C27.6842 4.64483 32.3417 6.57982 35.8292 10.0898C37.556 11.8087 38.9245 13.8533 39.8553 16.105C40.7861 18.3567 41.2607 20.7708 41.2517 23.2073C41.2967 33.4222 32.9717 41.7247 22.7567 41.7247ZM32.9267 27.8648C32.3642 27.5948 29.6192 26.2448 29.1242 26.0423C28.6067 25.8623 28.2467 25.7723 27.8642 26.3123C27.4817 26.8748 26.4242 28.1348 26.1092 28.4948C25.7942 28.8773 25.4567 28.9223 24.8942 28.6298C24.3317 28.3598 22.5317 27.7523 20.4167 25.8623C18.7517 24.3773 17.6492 22.5548 17.3117 21.9923C16.9967 21.4298 17.2667 21.1373 17.5592 20.8448C17.8067 20.5973 18.1217 20.1923 18.3917 19.8773C18.6617 19.5623 18.7742 19.3148 18.9542 18.9548C19.1342 18.5723 19.0442 18.2573 18.9092 17.9873C18.7742 17.7173 17.6492 14.9723 17.1992 13.8473C16.7492 12.7673 16.2767 12.9023 15.9393 12.8798H14.8593C14.4768 12.8798 13.8918 13.0148 13.3743 13.5773C12.8793 14.1398 11.4393 15.4898 11.4393 18.2348C11.4393 20.9798 13.4418 23.6348 13.7118 23.9948C13.9818 24.3773 17.6492 30.0023 23.2292 32.4097C24.5567 32.9947 25.5917 33.3322 26.4017 33.5797C27.7292 34.0072 28.9442 33.9397 29.9117 33.8047C30.9917 33.6472 33.2192 32.4547 33.6692 31.1497C34.1417 29.8448 34.1417 28.7423 33.9842 28.4948C33.8267 28.2473 33.4892 28.1348 32.9267 27.8648Z" fill="#1D61DF"/>
</svg>
